<?xml version="1.0" encoding="UTF-8"?>
<!DOCTYPE svg PUBLIC "-//W3C//DTD SVG 1.1//EN" "http://www.w3.org/Graphics/SVG/1.1/DTD/svg11.dtd">
<svg xmlns="http://www.w3.org/2000/svg" version="1.1" width="512px" height="512px" style="shape-rendering:geometricPrecision; text-rendering:geometricPrecision; image-rendering:optimizeQuality; fill-rule:evenodd; clip-rule:evenodd" xmlns:xlink="http://www.w3.org/1999/xlink">
<g><path style="opacity:0.996" fill="#000000" d="M 89.5,159.5 C 93.5,159.5 97.5,159.5 101.5,159.5C 126.167,159.5 150.833,159.5 175.5,159.5C 175.5,154.167 175.5,148.833 175.5,143.5C 120.501,155.834 99.1675,134.501 111.5,79.5C 111.667,63.8333 111.833,48.1667 112,32.5C 114.833,24.3333 120.333,18.8333 128.5,16C 213.167,15.3333 297.833,15.3333 382.5,16C 390.667,18.8333 396.167,24.3333 399,32.5C 399.667,63.8333 399.667,95.1667 399,126.5C 396.167,134.667 390.667,140.167 382.5,143C 366.837,143.5 351.17,143.667 335.5,143.5C 335.5,148.833 335.5,154.167 335.5,159.5C 371.502,159.333 407.502,159.5 443.5,160C 446.001,162.139 448.168,164.639 450,167.5C 462.333,187.5 474.667,207.5 487,227.5C 487.667,237.167 487.667,246.833 487,256.5C 482.667,272.833 472.333,283.167 456,287.5C 455.5,340.832 455.333,394.166 455.5,447.5C 463.174,447.334 470.841,447.5 478.5,448C 492.167,453.323 497.834,463.323 495.5,478C 495.333,482.5 495.167,487 495,491.5C 494.5,493.333 493.333,494.5 491.5,495C 334.167,495.667 176.833,495.667 19.5,495C 17.6667,494.5 16.5,493.333 16,491.5C 15.3333,482.5 15.3333,473.5 16,464.5C 18.8333,456.333 24.3333,450.833 32.5,448C 40.1594,447.5 47.8261,447.334 55.5,447.5C 55.6667,394.166 55.5,340.832 55,287.5C 38.6667,283.167 28.3333,272.833 24,256.5C 23.3333,246.833 23.3333,237.167 24,227.5C 37.6667,205.5 51.3333,183.5 65,161.5C 65.7504,160.874 66.5838,160.374 67.5,160C 74.8258,159.5 82.1591,159.334 89.5,159.5 Z M 191.5,143.5 C 234.167,143.5 276.833,143.5 319.5,143.5C 319.5,148.833 319.5,154.167 319.5,159.5C 276.833,159.5 234.167,159.5 191.5,159.5C 191.5,154.167 191.5,148.833 191.5,143.5 Z"/></g>
<g><path style="opacity:0.999" fill="#89dafd" d="M 132.5,31.5 C 214.501,31.3333 296.501,31.5 378.5,32C 380.667,32.8333 382.167,34.3333 383,36.5C 383.667,65.1667 383.667,93.8333 383,122.5C 382.167,124.667 380.667,126.167 378.5,127C 296.5,127.667 214.5,127.667 132.5,127C 130.333,126.167 128.833,124.667 128,122.5C 127.333,93.8333 127.333,65.1667 128,36.5C 129.025,34.313 130.525,32.6464 132.5,31.5 Z"/></g>
<g><path style="opacity:1" fill="#010202" d="M 281.5,39.5 C 295.853,38.2535 305.686,44.2535 311,57.5C 311.952,72.9012 311.619,88.2345 310,103.5C 303.451,116.857 292.951,121.691 278.5,118C 271.119,114.285 266.285,108.451 264,100.5C 263.333,86.1667 263.333,71.8333 264,57.5C 267.353,48.9815 273.186,42.9815 281.5,39.5 Z"/></g>
<g><path style="opacity:1" fill="#010102" d="M 324.5,39.5 C 333.582,39.0863 342.582,39.5863 351.5,41C 367.558,49.288 371.391,61.4547 363,77.5C 355.706,85.788 346.54,89.1214 335.5,87.5C 335.92,97.2471 335.42,106.914 334,116.5C 329.631,120.379 325.298,120.379 321,116.5C 320.667,115.5 320.333,114.5 320,113.5C 319.333,90.5 319.333,67.5 320,44.5C 321.025,42.313 322.525,40.6464 324.5,39.5 Z"/></g>
<g><path style="opacity:1" fill="#020404" d="M 169.5,39.5 C 186.088,38.1115 196.088,45.4448 199.5,61.5C 200.053,67.7768 197.22,71.1101 191,71.5C 188.594,71.2971 186.594,70.2971 185,68.5C 184.125,65.1169 183.125,61.7835 182,58.5C 176.559,54.0742 171.892,54.7409 168,60.5C 167.202,69.362 171.369,73.1953 180.5,72C 199.114,79.175 203.947,91.675 195,109.5C 181.909,122.715 168.909,122.715 156,109.5C 151.642,103.618 150.642,97.2846 153,90.5C 157.298,86.6211 161.631,86.6211 166,90.5C 167,93.8333 168,97.1667 169,100.5C 174.441,104.926 179.108,104.259 183,98.5C 184.027,94.8201 183.194,91.6534 180.5,89C 157.57,86.7691 148.736,74.6025 154,52.5C 157.869,46.4518 163.035,42.1185 169.5,39.5 Z"/></g>
<g><path style="opacity:1" fill="#010102" d="M 212.5,39.5 C 217.152,38.984 220.652,40.6507 223,44.5C 223.5,53.4938 223.666,62.4938 223.5,71.5C 228.833,71.5 234.167,71.5 239.5,71.5C 239.334,62.4938 239.5,53.4938 240,44.5C 242.983,39.4319 247.149,38.2652 252.5,41C 253.701,41.9025 254.535,43.0692 255,44.5C 255.667,67.5 255.667,90.5 255,113.5C 254.018,117.624 251.352,119.624 247,119.5C 244.594,119.297 242.594,118.297 241,116.5C 239.58,106.914 239.08,97.2471 239.5,87.5C 234.167,87.5 228.833,87.5 223.5,87.5C 223.92,97.2471 223.42,106.914 222,116.5C 217.631,120.379 213.298,120.379 209,116.5C 208.667,115.5 208.333,114.5 208,113.5C 207.333,90.5 207.333,67.5 208,44.5C 209.025,42.313 210.525,40.6464 212.5,39.5 Z"/></g>
<g><path style="opacity:1" fill="#87d7f9" d="M 335.5,55.5 C 339.182,55.3347 342.848,55.5014 346.5,56C 352.259,59.8919 352.926,64.5586 348.5,70C 344.3,71.3674 339.967,71.8674 335.5,71.5C 335.5,66.1667 335.5,60.8333 335.5,55.5 Z"/></g>
<g><path style="opacity:1" fill="#88d9fb" d="M 284.5,55.5 C 289.28,54.6409 292.78,56.3075 295,60.5C 295.667,73.1667 295.667,85.8333 295,98.5C 291.987,103.535 287.82,104.702 282.5,102C 281.299,101.097 280.465,99.9308 280,98.5C 279.333,85.8333 279.333,73.1667 280,60.5C 281.025,58.313 282.525,56.6464 284.5,55.5 Z"/></g>
<g><path style="opacity:0.18" fill="#fe8a89" d="M 101.5,159.5 C 97.5,159.5 93.5,159.5 89.5,159.5C 93.5,156.833 97.5,156.833 101.5,159.5 Z"/></g>
<g><path style="opacity:1" fill="#fd8989" d="M 75.5,175.5 C 88.5043,175.333 101.504,175.5 114.5,176C 106.539,191.422 98.7055,206.922 91,222.5C 76.2301,223.823 61.3968,223.823 46.5,222.5C 56.4284,206.973 66.0951,191.306 75.5,175.5 Z"/></g>
<g><path style="opacity:1" fill="#fdfdfd" d="M 132.5,175.5 C 145.517,175.168 158.517,175.501 171.5,176.5C 165.534,192.09 159.868,207.757 154.5,223.5C 139.163,223.667 123.83,223.5 108.5,223C 116.641,207.218 124.641,191.385 132.5,175.5 Z"/></g>
<g><path style="opacity:1" fill="#fc8888" d="M 188.5,175.5 C 199.833,175.5 211.167,175.5 222.5,175.5C 220.663,191.526 218.663,207.526 216.5,223.5C 201.5,223.5 186.5,223.5 171.5,223.5C 177.16,207.51 182.826,191.51 188.5,175.5 Z"/></g>
<g><path style="opacity:1" fill="#fcfcfc" d="M 238.5,175.5 C 249.833,175.5 261.167,175.5 272.5,175.5C 274.663,191.474 276.663,207.474 278.5,223.5C 263.167,223.5 247.833,223.5 232.5,223.5C 234.337,207.474 236.337,191.474 238.5,175.5 Z"/></g>
<g><path style="opacity:1" fill="#fc8888" d="M 288.5,175.5 C 299.853,175.168 311.186,175.501 322.5,176.5C 328.466,192.09 334.132,207.757 339.5,223.5C 324.5,223.5 309.5,223.5 294.5,223.5C 292.337,207.526 290.337,191.526 288.5,175.5 Z"/></g>
<g><path style="opacity:1" fill="#fdfdfd" d="M 339.5,175.5 C 352.504,175.333 365.504,175.5 378.5,176C 386.5,191.667 394.5,207.333 402.5,223C 387.17,223.5 371.837,223.667 356.5,223.5C 350.84,207.51 345.174,191.51 339.5,175.5 Z"/></g>
<g><path style="opacity:1" fill="#fd8989" d="M 396.5,176.5 C 409.327,175.34 422.327,175.173 435.5,176C 445.041,191.584 454.708,207.084 464.5,222.5C 449.845,223.666 435.178,223.833 420.5,223C 412.598,207.36 404.598,191.86 396.5,176.5 Z"/></g>
<g><path style="opacity:1" fill="#fc8888" d="M 39.5,239.5 C 55.5,239.5 71.5,239.5 87.5,239.5C 89.628,257.953 81.628,268.62 63.5,271.5C 45.372,268.62 37.372,257.953 39.5,239.5 Z"/></g>
<g><path style="opacity:1" fill="#fcfcfc" d="M 103.5,239.5 C 119.5,239.5 135.5,239.5 151.5,239.5C 153.628,257.953 145.628,268.62 127.5,271.5C 109.334,268.647 101.334,257.981 103.5,239.5 Z"/></g>
<g><path style="opacity:1" fill="#fc8888" d="M 167.5,239.5 C 183.5,239.5 199.5,239.5 215.5,239.5C 217.628,257.953 209.628,268.62 191.5,271.5C 173.372,268.62 165.372,257.953 167.5,239.5 Z"/></g>
<g><path style="opacity:1" fill="#fcfcfc" d="M 231.5,239.5 C 247.5,239.5 263.5,239.5 279.5,239.5C 281.628,257.953 273.628,268.62 255.5,271.5C 237.334,268.647 229.334,257.981 231.5,239.5 Z"/></g>
<g><path style="opacity:1" fill="#fc8888" d="M 295.5,239.5 C 311.5,239.5 327.5,239.5 343.5,239.5C 345.628,257.953 337.628,268.62 319.5,271.5C 301.372,268.62 293.372,257.953 295.5,239.5 Z"/></g>
<g><path style="opacity:0.996" fill="#fdfdfd" d="M 405.5,255.5 C 403.744,256.552 403.077,258.219 403.5,260.5C 394.1,272.509 382.767,274.676 369.5,267C 360.985,259.788 357.651,250.621 359.5,239.5C 375.5,239.5 391.5,239.5 407.5,239.5C 407.85,244.991 407.184,250.324 405.5,255.5 Z"/></g>
<g><path style="opacity:1" fill="#fc8888" d="M 423.5,239.5 C 439.5,239.5 455.5,239.5 471.5,239.5C 473.628,257.953 465.628,268.62 447.5,271.5C 429.372,268.62 421.372,257.953 423.5,239.5 Z"/></g>
<g><path style="opacity:1" fill="#8eda88" d="M 405.5,255.5 C 405.598,257.553 404.931,259.22 403.5,260.5C 403.077,258.219 403.744,256.552 405.5,255.5 Z"/></g>
<g><path style="opacity:1" fill="#91fe89" d="M 73.5,447.5 C 73.1583,446.662 72.4916,446.328 71.5,446.5C 71.1667,393.163 71.5001,339.829 72.5,286.5C 82.0158,284.248 89.6824,279.248 95.5,271.5C 112.92,290.191 132.253,292.357 153.5,278C 155.684,275.984 157.684,273.817 159.5,271.5C 176.92,290.191 196.253,292.357 217.5,278C 219.684,275.984 221.684,273.817 223.5,271.5C 240.92,290.191 260.253,292.357 281.5,278C 283.684,275.984 285.684,273.817 287.5,271.5C 304.92,290.191 324.253,292.357 345.5,278C 347.684,275.984 349.684,273.817 351.5,271.5C 368.92,290.191 388.253,292.357 409.5,278C 411.684,275.984 413.684,273.817 415.5,271.5C 421.579,279.541 429.579,284.541 439.5,286.5C 439.5,340.167 439.5,393.833 439.5,447.5C 418.167,447.5 396.833,447.5 375.5,447.5C 375.667,410.832 375.5,374.165 375,337.5C 371.631,328.129 365.131,322.296 355.5,320C 288.167,319.333 220.833,319.333 153.5,320C 145,323.167 139.167,329 136,337.5C 135.5,374.165 135.333,410.832 135.5,447.5C 114.833,447.5 94.1667,447.5 73.5,447.5 Z"/></g>
<g><path style="opacity:1" fill="#fed989" d="M 156.5,335.5 C 186.833,335.5 217.167,335.5 247.5,335.5C 247.5,372.833 247.5,410.167 247.5,447.5C 215.5,447.5 183.5,447.5 151.5,447.5C 151.333,411.832 151.5,376.165 152,340.5C 153.025,338.313 154.525,336.646 156.5,335.5 Z"/></g>
<g><path style="opacity:1" fill="#fed989" d="M 263.5,335.5 C 293.835,335.333 324.168,335.5 354.5,336C 355.931,336.465 357.097,337.299 358,338.5C 359.487,374.747 359.987,411.08 359.5,447.5C 327.5,447.5 295.5,447.5 263.5,447.5C 263.5,410.167 263.5,372.833 263.5,335.5 Z"/></g>
<g><path style="opacity:1" fill="#080704" d="M 228.5,383.5 C 233.152,382.984 236.652,384.651 239,388.5C 239.839,393.921 239.506,399.254 238,404.5C 234.498,407.601 230.665,408.101 226.5,406C 225.107,404.829 224.273,403.329 224,401.5C 223.333,397.167 223.333,392.833 224,388.5C 225.025,386.313 226.525,384.646 228.5,383.5 Z"/></g>
<g><path style="opacity:1" fill="#080704" d="M 276.5,383.5 C 281.152,382.984 284.652,384.651 287,388.5C 287.839,393.921 287.506,399.254 286,404.5C 282.498,407.601 278.665,408.101 274.5,406C 273.107,404.829 272.273,403.329 272,401.5C 271.333,397.167 271.333,392.833 272,388.5C 273.025,386.313 274.525,384.646 276.5,383.5 Z"/></g>
<g><path style="opacity:1" fill="#fed989" d="M 36.5,463.5 C 182.5,463.333 328.5,463.5 474.5,464C 476.667,464.833 478.167,466.333 479,468.5C 479.499,472.152 479.665,475.818 479.5,479.5C 330.167,479.5 180.833,479.5 31.5,479.5C 31.3347,475.818 31.5014,472.152 32,468.5C 33.025,466.313 34.525,464.646 36.5,463.5 Z"/></g>
</svg>
